<svg xmlns="http://www.w3.org/2000/svg" width="720" height="720" class="seal">
  <g fill="#1A1918" fill-rule="evenodd" class="seal__paths">
    <path d="M359.7 704.073c-91.985 0-178.464-35.82-243.508-100.863C51.152 538.163 15.328 451.683 15.328 359.7c0-91.984 35.82-178.46 100.864-243.505C181.236 51.15 267.715 15.33 359.702 15.33s178.464 35.82 243.505 100.865C668.25 181.235 704.07 267.712 704.07 359.7c0 91.986-35.82 178.466-100.863 243.51-65.04 65.044-151.518 100.863-243.506 100.863zm254.345-598.716C546.11 37.417 455.78 0 359.7 0S173.294 37.417 105.355 105.357C37.415 173.293 0 263.622 0 359.7c0 96.083 37.414 186.412 105.354 254.348C173.29 681.988 263.62 719.402 359.7 719.402c96.082 0 186.412-37.414 254.345-105.354 67.94-67.94 105.357-158.27 105.357-254.347 0-96.07-37.418-186.4-105.357-254.34z"/>
    <path d="M48.96 300.58c.71.156 1.406.24 2.063.24 4.928 0 7.3-4.213 9.393-7.93 2.01-3.57 3.93-6.858 7.575-5.942 2.83.63 4.01 3.936 3.01 8.417-.67 3.03-2.67 5.92-5.09 7.37l-1.31.787 2.05 3.25 1.27-.787c3.28-2.05 5.96-5.893 6.84-9.79.71-3.178.57-6.067-.4-8.36-1.05-2.456-2.95-4.055-5.49-4.618-.77-.173-1.51-.263-2.2-.263-5.01 0-7.41 4.253-9.52 8.004-2.23 3.968-4.06 6.623-7.31 5.883-2.45-.55-3.44-3.57-2.52-7.7.52-2.29 1.73-4.65 3.11-6.01l1.09-1.06-2.71-2.65-1.05 1.04c-1.89 1.86-3.53 4.94-4.18 7.85-1.43 6.41.7 11.22 5.42 12.28m32.57-29.79l-30.73-9.48-1.13 3.66 30.72 9.47 1.15-3.65m-12.09-15.65c1.87.76 3.85 1.15 5.89 1.15 6.6 0 12.73-4.16 15.24-10.34 1.53-3.75 1.64-7.94.3-11.8l-.53-1.58-3.45 1.63.45 1.28c1.03 2.91.93 6.13-.25 9.05-1.94 4.79-6.65 8-11.71 8-1.53 0-3.03-.29-4.48-.87-3.03-1.23-5.38-3.61-6.63-6.7-1.25-3.1-1.24-6.54.04-9.67 1.19-2.95 3.36-5.32 6.09-6.68l1.25-.62-1.46-3.47-1.43.72c-3.61 1.8-6.44 4.87-7.97 8.63-3.42 8.41.47 17.97 8.67 21.3m25.17-32.5c4.4 0 8.08-2.44 10.64-7.05 1.94-3.5 2.48-6.99 1.55-10.11-.93-3.12-3.31-5.81-6.87-7.79l-16.44-9.13-1.87 3.33 16.45 9.14c2.7 1.5 4.39 3.36 5.05 5.53.65 2.15.24 4.56-1.2 7.16-2.84 5.11-7.54 6.37-12.81 3.45l-16.45-9.15-1.85 3.35 16.44 9.13c2.53 1.41 5.01 2.13 7.37 2.13m3.68-49.32l22.72 16.08.4.28 2.21-3.11-23.13-16.38 5.79-8.17-3.12-2.2-13.79 19.46 3.12 2.21 5.78-8.17m30.82-37.81l5.32-5.38c3.93-3.98 8.02-4.46 11.27-1.26 1.54 1.52 2.32 3.16 2.33 4.9.01 2.09-1.13 4.36-3.29 6.54l-5.31 5.39-10.32-10.18zm17.49 22.63l2.69-2.73-7.13-7.03 5.31-5.38c5.56-5.64 5.9-11.93.92-16.84-2.15-2.13-4.69-3.25-7.35-3.25-3.17 0-6.39 1.57-9.33 4.54l-7.99 8.11 22.54 22.24.35.34zm27.57-42.48l-9.52 7.74-3.73-14.22 13.26 6.48zm-5.98 21.26l-2.47-9.45 12.24-9.95 8.5 4.18.28.14 3.3-2.69-31.85-15.54-2.19 1.79 8.87 34.24 3.33-2.7zm14.7-46.8l15.68 23.6 3.19-2.11L186.07 88l8.338-5.54-2.105-3.19-19.88 13.2 2.11 3.19 8.346-5.54m24.67-15.125l6.71-3.488c5.02-2.61 8.98-1.815 11.11 2.28 1.09 2.1 1.26 4.07.53 5.86-.75 1.81-2.42 3.4-4.97 4.73l-6.71 3.47-6.68-12.864zm13.05 25.154l-4.62-8.9 6.71-3.49c.63-.34 1.2-.68 1.69-.99l11.21 5.56 4.22-2.18-12.23-6.07c2.96-3.42 3.39-7.79 1.17-12.07-1.96-3.79-5.21-5.87-9.14-5.87-2.24 0-4.64.65-7.13 1.95l-10.1 5.25 14.81 28.52 3.4-1.74zm32.2-15.16L240.67 55.2l-3.548 1.434 12.154 29.782 3.54-1.443m14.836-9.6l-3.16-10.43 8.987-2.725c1.52-.464 2.91-.698 4.13-.698 2.76 0 4.52 1.173 5.22 3.485 1.32 4.363-2.64 6.563-6.2 7.64l-8.99 2.725zm-7.11-23.447l8.99-2.727c1.13-.35 2.178-.52 3.104-.52 2.38 0 3.923 1.11 4.59 3.3.45 1.48.303 2.78-.436 3.86-.8 1.16-2.326 2.11-4.41 2.75l-8.987 2.72-2.85-9.39zm4.564 28.225l12.65-3.84c3.473-1.05 6.012-2.64 7.55-4.73 1.614-2.19 2.017-4.83 1.165-7.63-.98-3.23-3.32-5.39-6.49-6.01 1.38-1.97 1.71-4.45.91-7.07-1.15-3.81-4.15-6-8.22-6-1.32 0-2.75.23-4.24.68l-12.65 3.84 9.2 30.31.15.47zm43.542-11.4c.94 0 1.928-.09 2.937-.26 3.965-.66 7.037-2.42 8.88-5.08 1.872-2.69 2.47-6.13 1.78-10.23l-3.04-18.06-.08-.48-3.773.64 3.122 18.56c.51 3.04.112 5.52-1.178 7.39-1.28 1.86-3.418 3.04-6.342 3.53-5.9.93-9.678-1.84-10.684-7.85l-3.036-18.09-.08-.49-3.776.66L296.5 57.5c1.198 7.155 5.628 11.26 12.148 11.26m35.647-7.676l-.298.008c-3.123 0-6.255-1.136-8.174-2.964l-1.103-1.064-2.594 2.84 1.1 1.016c2.68 2.476 6.724 4.013 10.56 4.013.235 0 .463-.008.687-.024 6.907-.34 11.205-3.92 10.952-9.12-.275-6.7-5.986-8.12-10.572-9.26-5.054-1.27-7.456-2.23-7.616-5.5-.045-.89.237-1.68.845-2.34 1.122-1.24 3.227-2 5.904-2.13l.282-.01c2.37 0 4.858.55 6.338 1.4l1.313.76 1.84-3.3-1.28-.74c-2.29-1.33-5.73-2.1-8.68-1.94-6.45.31-10.63 3.72-10.4 8.48.32 6.47 5.93 7.87 10.44 9 5.15 1.28 7.59 2.27 7.74 5.73.07 1.37-.49 2.51-1.65 3.4-1.31 1.01-3.27 1.6-5.65 1.72m48.48 5.34c.78.09 1.53.13 2.22.13 5.68 0 9.55-2.81 10.08-7.32.84-6.64-4.56-8.99-8.89-10.88-4.78-2.09-6.99-3.43-6.6-6.68.25-2.12 2.4-3.39 5.74-3.39.53 0 1.09.03 1.67.1 2.32.27 4.79 1.24 6.28 2.47l1.18.97 2.34-2.97-1.13-.93c-2.04-1.69-5.28-3.01-8.23-3.36-.73-.08-1.45-.13-2.14-.13-5.38 0-9.03 2.59-9.52 6.77-.76 6.43 4.54 8.75 8.81 10.61 4.87 2.12 7.11 3.5 6.68 6.92-.29 2.48-2.63 3.96-6.26 3.96-.58 0-1.19-.04-1.81-.12-3.09-.36-6.17-2.05-7.85-4.32l-.92-1.227-3.03 2.37.91 1.18c2.37 3.06 6.47 5.334 10.44 5.802m32.23-26.82l.09-.48-3.75-.78-6.3 31.03-.1.48 3.75.783 6.3-31.033M436.69 75l3.683 1.04 7.78-27.25 9.63 2.755 1.05-3.688-22.94-6.54-1.05 3.67 9.63 2.756-7.78 27.26m62.15-6.473c3.01 1.485 5.29 4.034 6.4 7.18 1.11 3.135.924 6.47-.52 9.4-2.04 4.15-6.278 6.725-11.05 6.725-1.98 0-3.886-.45-5.66-1.32l-8.206-4.05 10.825-21.98 8.202 4.03zm-5.16 27.13c6.24 0 11.79-3.395 14.48-8.86 3.91-7.965.49-17.7-7.63-21.71l-11.64-5.72-14.2 28.85 11.632 5.727c2.32 1.137 4.792 1.717 7.357 1.717zm15.58 10.7l17.83 11.693.41.27 2.097-3.2-15.04-9.854 5.91-9.01 12.54 8.21.41.27 2.1-3.19-12.95-8.48 5.43-8.28 14.55 9.52 2.11-3.19-17.342-11.38-.41-.27-17.353 26.48-.27.41m30.89 17.16c.24 3.23 1.994 6.3 5.07 8.89 2.78 2.33 5.674 3.51 8.6 3.51 3.596 0 7.045-1.85 9.98-5.33l12.11-14.41-2.93-2.45-12.11 14.39c-3.88 4.62-8.73 5.12-13.19 1.35-2.28-1.91-3.52-4.02-3.68-6.27-.164-2.25.76-4.59 2.74-6.94l11.79-14.03.313-.38-2.923-2.45-12.11 14.39c-2.67 3.18-3.902 6.45-3.662 9.73m40.607 31.17c-2.08 1.98-5.58 1.04-8.66-2.22-2.14-2.26-3.41-5.54-3.25-8.35l.09-1.55-3.85-.09-.05 1.47c-.14 3.85 1.54 8.23 4.29 11.14 2.74 2.9 5.86 4.5 8.78 4.5 1.98 0 3.81-.74 5.27-2.13 4.9-4.56 2.27-9.82.15-14.05-2.33-4.66-3.16-7.1-.78-9.36 1.79-1.7 4.99-.76 7.8 2.23 1.605 1.69 2.873 4.02 3.23 5.92l.28 1.5 3.695-.76-.265-1.44c-.485-2.61-2.125-5.69-4.17-7.86-2.59-2.74-5.58-4.26-8.43-4.26-1.825 0-3.48.64-4.78 1.87-4.71 4.46-2.12 9.63-.04 13.79 2.377 4.76 3.22 7.25.69 9.6m14.57 31.39l2.1 3.2 21.09-13.84-10.77 28.43-.27.71 1.93 2.94 26.47-17.37.414-.27-2.097-3.2-21.085 13.84 10.76-28.43.274-.72-1.93-2.93-26.47 17.372-.415.27m51.71 32.2c3.03 6.28.56 13.78-5.51 16.72-1.62.78-3.35 1.17-5.15 1.17-4.8 0-9.28-2.83-11.4-7.22-3.03-6.28-.55-13.784 5.55-16.73 1.61-.78 3.34-1.17 5.14-1.17 4.79 0 9.26 2.84 11.38 7.235zm-18.19-9.5c-3.85 1.86-6.74 5.176-8.13 9.32-1.38 4.14-1.1 8.58.8 12.516 2.76 5.7 8.59 9.39 14.85 9.39 2.39 0 4.68-.53 6.82-1.56 7.97-3.86 11.24-13.64 7.29-21.82-2.76-5.71-8.58-9.41-14.83-9.41-2.37 0-4.66.52-6.8 1.56zm31.27 40.32l3 8.91c.39 1.13.79 2.81.54 4.33-.28 1.71-1.29 2.833-3.08 3.44-.6.21-1.19.31-1.74.31-2.77 0-4.26-2.7-5.02-4.95l-2.99-8.91 9.31-3.13zm-12.41 22.68c-3.33 1.14-6.16-1.043-7.82-5.96l-2.99-8.903 10.33-3.474 3 8.9c.97 2.88 1.93 7.933-2.51 9.43zM636.28 267c1.93 5.72 5.33 8.86 9.58 8.86.99 0 2.01-.17 3.04-.51 3.26-1.1 5.3-3.45 5.82-6.67 1.99 1.29 4.52 1.55 7.1.696 2.58-.88 4.39-2.54 5.24-4.8.82-2.2.72-4.83-.28-7.82l-4.22-12.53-30.48 10.25 4.22 12.53zm6.32 21.91l.88 3.73 29.83-7.16 1.46-.34-.88-3.72-30.8 7.38-.48.11m27.32 10.89c-6.4 1.02-7.19 6.75-7.83 11.36-.73 5.268-1.44 7.8-4.86 8.31-2.84.49-5.17-2.193-5.89-6.72-.49-3.07.31-6.49 2.03-8.72l.94-1.22-3.11-2.26-.88 1.19c-2.3 3.105-3.38 7.66-2.76 11.62.98 6.17 4.43 10.006 8.99 10.006.43 0 .86-.03 1.27-.1 6.62-.99 7.42-6.82 8.06-11.5.72-5.16 1.41-7.65 4.64-8.16 2.44-.41 4.51 2.08 5.17 6.25.37 2.31.1 4.95-.68 6.72l-.61 1.39 3.48 1.47.59-1.35c1.08-2.43 1.47-5.9 1-8.84-.93-5.87-4.13-9.52-8.36-9.52-.39 0-.79.03-1.19.1M41.46 363.1l2.6-2.718-.86-1.01c-1.96-2.31-3.008-5.286-2.947-8.37.12-6.72 5.65-12.186 12.29-12.186 3.19.053 6.18 1.4 8.41 3.794 2.24 2.398 3.44 5.543 3.37 8.858-.06 3.12-1.21 6.05-3.23 8.25l-.94 1.03 2.59 2.66 1.06-1.16c2.67-2.92 4.18-6.72 4.26-10.7.17-8.9-6.75-16.29-15.447-16.46h-.28c-8.55 0-15.64 7.113-15.81 15.857-.07 3.963 1.3 7.835 3.88 10.906l1.05 1.26m27.3 13.15l-.22-3.76-31 1.94-.49.03.24 3.76 30.99-1.93.49-.03m3.71 31.91L46 401.36l23.56-13.88-.57-4.1-29.41 17.42.39 2.844 33.062 8.66-.58-4.144m2.34 11.02l-30.33 6.71-.48.11.833 3.68 30.794-6.81-.81-3.687m5.57 35.076l3.61-1.1-6.69-22.41-3.61 1.06 2.8 9.41-26.62 7.94 1.07 3.61 26.62-7.94 2.81 9.41m3.68 15.6l-9.91 10.5-4.47-11.14 14.37.64zm5.01-3.53l-33.89-1.61-.76-.04 1.57 3.93 9.56.44 5.75 14.33-6.6 6.96 1.57 3.89 23.85-25.28-1.04-2.6zm13.81 38.36l3.36-1.71-10.43-20.4-.23-.43-3.37 1.71 4.47 8.74L72.37 505l-.44.227 1.71 3.363 24.73-12.644 4.46 8.73m9.53 8.34l-1.95-3.226-26.562 16.1-.42.25 1.95 3.23 26.563-16.094.42-.255m14.78 25.89c-.12-2.6-1.31-5.81-3.01-8.18-2.43-3.4-5.56-5.35-8.58-5.35-1.43 0-2.76.44-3.94 1.28-5.17 3.71-3.34 9.08-1.87 13.4 1.68 4.93 2.16 7.46-.6 9.41-2.26 1.64-5.55.26-8.1-3.29-1.77-2.48-2.57-5.83-2.05-8.54l.28-1.48-3.73-.63-.25 1.45c-.65 3.74.41 8.21 2.69 11.38 2.59 3.62 5.78 5.62 8.98 5.62 1.58 0 3.05-.48 4.38-1.43 5.37-3.79 3.5-9.24 2.01-13.63-1.64-4.83-2.12-7.31.48-9.18 2-1.39 4.93-.07 7.27 3.19 1.34 1.87 2.26 4.3 2.36 6.2l.08 1.5 3.71-.25-.06-1.44m27.39 43c-3.29 3.3-7.28 2.9-11.19-.99l-5.24-5.22 10.01-10.06 5.24 5.23c2.79 2.77 5.25 6.94 1.18 11.04zm1.49-13.72l-7.91-7.88-21.91 21.99-.34.35 2.67 2.65 6.92-6.95 5.24 5.23c.45.45.9.85 1.42 1.29l-1.88 12.13 3.32 3.28 2.04-13.21c1.34.58 2.71.87 4.08.87 2.72 0 5.33-1.17 7.53-3.38 4.75-4.77 4.31-10.9-1.18-16.38zm17.48 21.05l13.34 10.63 2.36-2.95-16.29-12.98-19.66 24.66 16.74 13.32 2.34-2.95-13.79-11 6.57-8.25 11.87 9.46 2.35-2.96-11.863-9.45 6.04-7.57m42.01 29.62c-1.14-3.8-3.63-7.06-7-9.15-2.61-1.64-5.6-2.5-8.67-2.5-5.52 0-10.52 2.72-13.37 7.29-2.24 3.57-2.91 7.82-1.9 11.97 1.01 4.14 3.57 7.69 7.22 9.97 2.6 1.62 5.62 2.48 8.72 2.48.9 0 1.79-.07 2.64-.21l.66-.11 6.61-10.57-3.19-2-5.7 9.12c-2.7.21-5.45-.45-7.74-1.89-2.81-1.75-4.79-4.48-5.56-7.68-.78-3.18-.28-6.43 1.42-9.13 2.17-3.47 5.99-5.54 10.2-5.54 2.36 0 4.68.67 6.71 1.93 2.64 1.65 4.56 4.14 5.42 7l.39 1.33 3.62-.83-.46-1.51m13.12 2.21l-14.3 28.17 3.36 1.72L232 622.77l-3.36-1.717m20.492 33.134l-2.563-24.446-3.57-1.35-11.3 29.44 3.51 1.36 8.3-21.62 2.27 21.5.2.87 1.63.68 16.69-15.05-8.27 21.64 3.52 1.34 11.3-29.45-3.56-1.36-18.19 16.48m25.58 18.08l-.13.48 3.64.97 8.25-30.45-3.63-.98-8.13 29.99m40.72 2.15l-13.5-27.39-3.4-.58-5.33 31.1 3.71.62 4.18-24.35 13.5 27.39 3.4.58 5.33-31.09-3.72-.62-4.18 24.35m18.39 8.94l21.36 1.09.2-3.76-17.6-.9.54-10.53 15.16.78.19-3.77-15.15-.78.5-9.67 17.03.88.19-3.77-20.79-1.06-1.62 31.52m57.41-4.31l-3.07-23.8 8.88-1.15c.54-.07 1.08-.1 1.62-.1 6.15 0 11.38 4.49 12.15 10.45.84 6.55-3.97 12.59-10.72 13.47l-8.87 1.14zm7.46-28.83c-.71 0-1.43.05-2.14.14l-12.59 1.6 3.97 30.81.06.49 12.61-1.63c4.25-.54 8.04-2.68 10.69-6.02 2.65-3.34 3.82-7.48 3.28-11.65-1.01-7.83-7.83-13.74-15.87-13.74zm42.13 19.67c-1.08.29-2.18.43-3.25.43-5.57 0-10.43-3.63-11.83-8.85-.82-3.06-.34-6.29 1.33-9.09 1.68-2.81 4.36-4.83 7.55-5.68 1.06-.28 2.16-.42 3.26-.42 5.56 0 10.41 3.62 11.8 8.82 1.7 6.4-2.28 13.04-8.87 14.81zm-2.93-27.39c-1.42 0-2.84.19-4.24.56-8.61 2.29-13.79 10.99-11.55 19.39 1.82 6.85 8.19 11.64 15.47 11.64 1.42 0 2.84-.19 4.21-.56 8.6-2.3 13.77-11.01 11.53-19.43-1.82-6.84-8.17-11.62-15.44-11.62zm82.32-16.13l-10.34 6.09-1.54-14.31 11.87 8.22zm-16.12-12.64l3.58 34.51 3.64-2.15-1.01-9.52 13.3-7.85 7.87 5.47 3.62-2.12-28.62-19.77-2.4 1.42zm35.78-19.5l-2.22-3.05-18.96 13.72 2.22 3.04 7.95-5.75 16.28 22.51 3.06-2.22L531.95 600l7.96-5.752m26.7-2.792l-9.037 7.905-4.15-13.77 13.19 5.87zm-16.08-11.264l-2.104 1.835 9.912 33.24 3.182-2.762-2.76-9.183 11.62-10.178 8.75 3.92 3.152-2.764-31.48-13.98-.287-.128zm52.52-28.036l-7.566 9.32-6.43-12.872 13.998 3.552zm-19.51-6.207l15.054 30.4.343.68 2.664-3.29-4.27-8.57 9.74-12 9.29 2.38 2.65-3.26-33.71-8.53-1.76 2.17zm36.52-4.03c-.784 1.13-.49 2.74.635 3.52.42.29.92.44 1.44.44.847 0 1.63-.41 2.1-1.09.38-.55.52-1.23.4-1.9-.126-.68-.494-1.26-1.042-1.63-1.07-.74-2.792-.42-3.53.64m-9.82-26.75l4.46-7.76c2.222-3.87 6.334-6.27 10.73-6.27 2.055 0 4.076.53 5.844 1.55 5.73 3.29 7.63 10.78 4.238 16.68l-4.47 7.76-20.81-11.98zm22.92-15.74c-2.348-1.35-5.02-2.07-7.728-2.07-5.736 0-11.1 3.12-13.996 8.16l-6.34 11.03 27.34 15.73 6.34-11.04c2.14-3.73 2.73-8.05 1.67-12.18-1.07-4.13-3.66-7.56-7.3-9.65zm17.083-5.19c-1.2-.57-2.83.04-3.38 1.21-.28.6-.31 1.29-.08 1.94.23.64.698 1.15 1.306 1.44.33.15.693.24 1.07.24.99 0 1.894-.58 2.31-1.46.282-.61.31-1.3.074-1.95-.233-.65-.69-1.15-1.29-1.43M632.83 460.1l3.57 1.21 1.98-5.803 26.29 8.95 1.21-3.57-29.86-10.17-3.193 9.374m20.51-25.68c-1.29 4.9-4.126 7.31-7.5 6.26-3.356-1.02-4.58-4.6-3.273-9.58 1.08-4.12 3.207-6.49 5.827-6.49l.13.01c.47.01.95.09 1.44.25 1.67.51 2.81 1.55 3.41 3.11.66 1.69.65 3.92-.03 6.46zm16.94 5.16c-1.58 6.02-4.962 8.77-9.145 7.52-1.85-.56-3.12-1.79-3.78-3.66-.72-2.02-.673-4.7.13-7.75 1.32-5.04 3.86-7.93 6.96-7.93l.15.01c.5.02 1.028.1 1.566.27 2.048.63 3.454 1.91 4.175 3.82.77 2.02.75 4.7-.05 7.74zm-2.877-15.95c-3.77-1.16-7.358-.11-10.1 2.91-1.02-3.07-3.16-5.18-6.246-6.12-.94-.28-1.87-.42-2.77-.42-4.56 0-8.253 3.7-9.877 9.89-.946 3.62-.93 6.92.06 9.54 1.065 2.82 3.16 4.77 6.074 5.65 3.05.93 5.94.33 8.31-1.7.86 4.19 3.33 7.01 7.17 8.18.99.3 1.99.47 2.96.51l.29.01c5.21 0 9.28-4.1 11.16-11.24 1.23-4.67 1.03-8.79-.58-11.92-1.31-2.55-3.54-4.37-6.45-5.25zm7.16-12.9l-8.13-9.88c-2.93-3.81-6.36-6.35-9.197-6.79-4.94-.71-8.61 2.48-9.483 8.21-.51 3.39.5 7.13 2.7 10.01l.88 1.15 3.033-2.23-.912-1.19c-1.57-2.06-2.33-4.81-1.96-7.17.55-3.58 2.45-5.47 5.19-5.03 1.83.28 4.49 2.38 6.79 5.37l10.71 13.06.12.15 3.15.48 3.26-21.36-3.73-.56-2.4 15.82m4.65-46.56l-.93 15.97-9.01-9.09c-3.27-3.54-6.92-5.74-9.77-5.9-4.92-.38-8.36 3.24-8.69 9.04-.2 3.41 1.15 7.04 3.62 9.71l.99 1.06 2.81-2.5-1.02-1.1c-1.76-1.91-2.76-4.57-2.62-6.96.21-3.55 1.76-5.5 4.37-5.5h.33c1.83.12 4.74 2.01 7.26 4.72l11.87 12.01.13.13 3.19.19 1.25-21.58-3.76-.21M213.8 528.45c3.22 0 6.27 1.126 8.58 3.17l.947.83 2.44-2.44-1.08-.944c-3.014-2.633-6.883-4.087-10.89-4.087-9 0-16.317 7.13-16.317 15.9 0 8.79 7.32 15.94 16.315 15.94 4.01 0 7.89-1.47 10.934-4.13l1.11-.98-2.56-2.38-.91.8c-2.35 2.07-5.39 3.21-8.58 3.21-7.09 0-12.85-5.6-12.85-12.47 0-6.86 5.76-12.43 12.84-12.43m24.81 12.43c0-6.83 5.74-12.38 12.8-12.38 7.06 0 12.8 5.56 12.8 12.39 0 6.86-5.75 12.43-12.81 12.43-7.06 0-12.8-5.57-12.8-12.43zm29.12 0c0-8.76-7.32-15.9-16.32-15.9s-16.32 7.14-16.32 15.9c0 8.79 7.32 15.94 16.31 15.94 8.99 0 16.31-7.15 16.31-15.93zm13.57-9.6l18.4 25.34.14.21h3.27V525h-3.51v25.545l-18.4-25.34-.15-.205h-3.27v31.835h3.51v-25.542m41.31 22.032v-24.812h9.29c7.04 0 12.76 5.573 12.76 12.427 0 6.83-5.72 12.385-12.76 12.385h-9.3zm25.57-12.385c0-8.79-7.31-15.94-16.28-15.94h-12.81v31.835h12.81c8.97 0 16.27-7.133 16.27-15.895zm13.49 15.895h3.51V525h-3.51v31.835zm28.72 0v-28.322h10.01V525h-23.53v3.513h10.01v28.322h3.51m22.59-12.398l6.32-13.93 6.45 13.93h-12.77zm-1.59 3.513h15.97l4.09 8.885h3.91l-14.63-31.55-.14-.285h-2.63l-14.25 31.137-.32.698h3.94l4.04-8.885zm77.2-3.513H475.8l6.322-13.93 6.45 13.93zM483.42 525h-2.63l-14.25 31.137-.313.698h3.94l4.05-8.885h15.97l4.08 8.885h3.91L483.43 525zm53.06 15.94c0 6.83-5.72 12.385-12.76 12.385h-9.3v-24.812h9.3c7.04 0 12.76 5.573 12.76 12.427zm3.51 0c0-8.79-7.3-15.94-16.27-15.94h-12.81v31.835h12.81c8.97 0 16.27-7.133 16.27-15.895zm-228.8 77.896v-36.77h-11.17v3.914h7.262v32.856h3.914m39.614-10.52c0 5.543-3.984 9.124-10.156 9.124-7.16 0-10.383-5.09-10.383-8.705 0-4.372 3.82-9.02 10.9-9.02 5.95 0 9.64 3.297 9.64 8.6zm4.455.105c0-7.93-5.403-12.86-14.095-12.86-5.028 0-9.21 1.65-11.96 4.69.398-4.85 1.875-8.67 4.31-11.09 1.385-1.38 4.306-3.69 8.278-3.69 2.523 0 6.338 0 9.03 1.28l.414.2 1.326-2.26.308-.58h-.02l.487-.86-.502-.22c-3.61-1.56-7.65-1.7-11.15-1.7-10.21 0-17.07 8.61-17.07 21.42 0 3.98.66 7.44 1.97 10.29l.45.89c2.69 5.04 7.51 7.71 13.92 7.71 8.7 0 14.32-5.17 14.32-13.18zm37.813.32c0-6.05-4.445-9.94-11.677-10.3l10.59-13.35.12-.14v-2.88h-24v3.92h18.04l-10.6 13.33-.12.14v2.89h4.86c4.05 0 8.88 1.15 8.88 6.61 0 4.61-3.44 7.58-8.78 7.58-2.84 0-5.88-.9-8.13-2.41l-1.16-.78-2.36 3.14 1.31.87c2.94 1.94 6.81 3.1 10.34 3.1 7.6 0 12.7-4.7 12.7-11.68m18.58-9.52c0-6.59 1.9-14.44 10.92-14.44 7.07 0 10.96 5.13 10.96 14.44 0 9.35-3.89 14.5-10.96 14.5-7.04 0-10.91-5.15-10.91-14.5zm10.92 18.41c9.46 0 14.88-6.71 14.88-18.41 0-11.66-5.42-18.36-14.87-18.36-9.42 0-14.83 6.7-14.83 18.36 0 11.7 5.41 18.41 14.83 18.41zM178.41 474.22v-17.547h15.853c7.34 0 11.38 3.103 11.38 8.74 0 5.682-4.04 8.808-11.38 8.808h-15.85zm29.734 13.462c0 6.274-4.93 9.73-13.88 9.73h-15.85V478.15h15.856c8.96 0 13.888 3.386 13.888 9.532zm3.93.067c0-5.61-2.94-9.89-8.11-11.89 3.67-2.05 5.678-5.71 5.678-10.45 0-7.98-5.75-12.74-15.38-12.74h-19.85v48.73h19.85c11.32 0 17.81-4.98 17.81-13.66zm57.94-10.74c0 11.25-9.417 20.4-20.994 20.4s-20.996-9.15-20.996-20.4c0-11.22 9.42-20.34 20.99-20.34s21 9.12 21 20.33zm-20.994-24.34c-13.78 0-24.99 10.92-24.99 24.33 0 13.45 11.21 24.39 24.99 24.39 13.78 0 24.99-10.94 24.99-24.4 0-13.42-11.21-24.34-24.99-24.34zm68.933 36.2c.077-9.8-8.055-12.25-15.236-14.42-6.6-2-12.3-3.72-12.3-10.23 0-4.59 4.72-7.56 12.03-7.56 3.886 0 8.156 1.13 10.875 2.88l1.14.73 2.07-3.33-1.11-.72c-3.36-2.17-8.46-3.58-12.98-3.58-9.74 0-16.03 4.53-16.03 11.55 0 9.47 7.99 11.89 15.05 14.03 6.73 2.04 12.542 3.8 12.49 10.61 0 5.19-5.088 8.54-12.96 8.54-5.17 0-10.608-2.21-13.85-5.64l-.947-1-2.83 2.83.92.94c4.094 4.16 10.65 6.85 16.7 6.85 10.3 0 16.952-4.92 16.952-12.53m45.39-36.2h-35.62v3.99h15.814v44.74h4v-44.73h15.81v-4M414.08 477c0 11.25-9.42 20.4-20.997 20.4-11.58 0-20.998-9.15-20.998-20.4 0-11.216 9.41-20.337 20.99-20.337 11.576 0 20.992 9.12 20.992 20.336zm3.99 0c0-13.416-11.21-24.334-24.987-24.334-13.78 0-24.99 10.917-24.99 24.333 0 13.45 11.21 24.39 24.99 24.39 13.777 0 24.986-10.94 24.986-24.39zm19.637-17.557l30.31 41.746.147.2h3.996v-48.73h-3.996v41.96l-30.31-41.75-.15-.2h-4v48.73h3.993v-41.96m57.4 41.95h3.992v-48.73h-3.99v48.73zm55.83-17.17H527.6l11.578-25.5 11.768 25.5zm7.79 16.87l.13.28h4.46l-22.58-48.73h-3.164l-21.987 48.04-.32.7h4.52l5.895-12.98h27.18l5.86 12.69zM435.29 140.85c-.13-2.61-.646-5.11-1.514-7.453h12.39c.892 0 1.62-.727 1.62-1.62 0-.894-.728-1.62-1.62-1.62H432.27c-3.826-7.03-10.844-11.98-19.144-12.934h31.25c.9 0 1.62-.727 1.62-1.62 0-.894-.72-1.62-1.62-1.62h-52.74c-.89 0-1.62.726-1.62 1.62 0 .893.73 1.62 1.62 1.62h15.79c-12.504 1.436-22.284 11.965-22.284 24.85 0 2.338.43 4.596 1.05 6.805-5.54.216-10.27 3.46-12.65 8.13-.044 0-.07-.046-.115-.046h-1.19c-.894 0-1.62.727-1.62 1.62 0 .894.726 1.62 1.62 1.62h.102c-.28 1.13-.47 2.293-.47 3.505 0 1.302.22 2.564.55 3.802-5.34 1.56-9.28 6.44-9.32 12.27h-24.98c2.93-2.97 4.59-7 4.59-11.23 0-8.82-7.18-16.01-16-16.01-2.32 0-4.62.5-6.71 1.46-.01-1.53-.18-3.01-.48-4.45h5.96c.89 0 1.62-.73 1.62-1.63s-.73-1.62-1.62-1.62h-6.47c-.18 0-.29.13-.45.18-3.15-8.73-11.44-15.03-21.25-15.03-2.12 0-4.13.38-6.08.93.1-.22.27-.4.27-.65 0-.89-.73-1.62-1.62-1.62H276.5c-.89 0-1.62.73-1.62 1.62 0 .89.73 1.62 1.62 1.62h11.78c-5.623 2.46-10.01 7.15-12.155 12.93h-4.28c-.89 0-1.62.73-1.62 1.62 0 .89.73 1.62 1.62 1.62h3.27c-.16.8-.174 1.64-.253 2.46-1.11-.19-2.225-.38-3.35-.38-5.12 0-9.75 2.04-13.195 5.31h-15.97c-.89 0-1.62.73-1.62 1.62 0 .9.73 1.62 1.62 1.62h13.192c-2.04 3.06-3.24 6.72-3.24 10.66 0 .77.19 1.52.28 2.28h-10.23c-.11 0-.19.1-.29.12-.11-.02-.18-.12-.3-.12h-2.38c-.89 0-1.62.73-1.62 1.62 0 .89.73 1.62 1.62 1.62h2.38c.11 0 .19-.1.3-.12.11.02.18.12.29.12h10.85c.28.95.66 1.86 1.09 2.76-6.97 2.96-11.87 9.88-11.87 17.92 0 1.07.08 2.13.26 3.18-3.4-2.12-7.3-3.24-11.36-3.24-7.89 0-15.04 4.24-18.82 11.12-5.17-5.61-12.21-8.7-19.91-8.7-11.93 0-22.25 7.55-25.84 18.83-2.51-.99-5.17-1.5-7.9-1.5-11.84 0-21.47 9.63-21.47 21.47 0 .73.04 1.46.11 2.18.08.83.77 1.45 1.61 1.45h.17c.88-.1 1.53-.89 1.45-1.78-.07-.61-.09-1.23-.09-1.85 0-10.06 8.17-18.23 18.23-18.23 2.26 0 4.44.48 6.52 1.28-.8.51-1.55 1.09-2.2 1.8-1.59 1.72-2.57 3.86-2.85 6.18-.11.89.53 1.7 1.4 1.8.06.01.13.02.2.02.82 0 1.51-.62 1.61-1.43.2-1.64.89-3.15 2.01-4.38 1.42-1.55 3.36-2.45 5.46-2.54 2.08-.07 4.11.64 5.65 2.06.57.52 1.06 1.12 1.44 1.78.44.73 1.48 1 2.22.56.77-.46 1.02-1.45.57-2.22-.55-.92-1.23-1.77-2.04-2.51-2.05-1.89-4.73-2.92-7.54-2.92-.14 0-.29 0-.44.01-.37.01-.72.1-1.08.15 3.02-10.06 12.13-16.98 22.79-16.98 7.61 0 14.58 3.5 19.15 9.6.39.51 1.05.76 1.69.6.63-.16 1.11-.69 1.2-1.33l.1-.68c2.97-6.45 9.47-10.62 16.58-10.62 4.82 0 9.38 1.9 12.89 5.36-.68 1.72-1.09 3.58-1.09 5.54 0 3.2.99 6.25 2.85 8.84.31.42.8.68 1.32.68.34 0 .67-.11.94-.31.35-.25.59-.62.66-1.05.07-.43-.03-.86-.28-1.21-1.46-2.03-2.23-4.43-2.23-6.94 0-6.56 5.33-11.9 11.89-11.9 1.16 0 2.32.17 3.42.5.85.25 1.76-.24 2.01-1.09.13-.42.08-.85-.12-1.24-.21-.38-.55-.66-.96-.78-1.41-.42-2.88-.64-4.36-.64-4.8 0-9.04 2.29-11.82 5.79-.47-1.53-.79-3.1-.79-4.73 0-8.95 7.28-16.23 16.23-16.23 1.452 0 2.89.19 4.27.57.82.23 1.753-.3 1.98-1.14.11-.42.055-.86-.16-1.23-.21-.38-.56-.65-.98-.76-1.66-.45-3.38-.69-5.12-.69-1.56 0-3.064.232-4.52.582-.44-.85-.777-1.754-1.05-2.674.132-.24.31-.46.31-.75 0-.55-.32-.96-.74-1.26-.15-.874-.33-1.75-.33-2.64 0-4.16 1.64-7.92 4.25-10.766.63-.12 1.07-.56 1.22-1.18 2.81-2.48 6.46-4.03 10.5-4.03 1.1 0 2.19.15 3.26.37.15 3.21.87 6.3 2.32 9.17.39.78 1.4 1.11 2.18.71.8-.404 1.12-1.38.71-2.18-1.39-2.733-2.094-5.69-2.094-8.79 0-2.03.4-3.954.984-5.8.04-.15.17-.253.17-.42 0-.02-.03-.032-.03-.06 2.63-7.63 9.8-13.16 18.31-13.16 10.72 0 19.44 8.72 19.44 19.44 0 1.48-.162 2.95-.492 4.38-.17.767.22 1.54.95 1.85.7.31 1.57.04 1.99-.61l1.7-2.61c1.78-.91 3.78-1.39 5.8-1.39 7.04 0 12.77 5.73 12.77 12.768 0 4.85-2.69 9.22-7.02 11.407-.67.34-1.02 1.09-.84 1.82.18.73.83 1.24 1.58 1.24h30.36c1.22 4.8 5.08 8.62 10.12 9.55.1.02.2.03.3.03.78 0 1.45-.56 1.59-1.33.17-.877-.41-1.72-1.29-1.89-4.59-.85-7.92-4.86-7.92-9.53s3.33-8.59 7.74-9.49c.15.05.29.14.46.14.216 0 .43-.05.63-.13.06-.03.07-.1.13-.14.24-.02.473-.08.72-.08 2.32 0 4.563.83 6.32 2.35.65.567 1.715.5 2.285-.163.28-.33.42-.75.387-1.18-.03-.43-.23-.82-.56-1.1-2.34-2.02-5.33-3.134-8.43-3.134-.13 0-.26.04-.39.04-.31-1.06-.52-2.14-.52-3.27 0-6.41 5.22-11.63 11.64-11.63.19 0 .37.07.56.08.295.46.76.78 1.32.78.22 0 .434-.047.64-.13.15-.067.195-.22.31-.32 3.35.85 6.24 3.11 7.73 6.322.36.785 1.36 1.16 2.15.78.81-.375 1.16-1.34.79-2.15-2.01-4.32-6.01-7.25-10.57-8.185-.8-2.31-1.31-4.69-1.31-7.17 0-12.07 9.83-21.9 21.9-21.9 11.74 0 21.27 9.32 21.8 20.96-.21.25-.4.52-.42.867-.07.893.6 1.674 1.48 1.742 8.163.64 14.562 7.57 14.562 15.78 0 4.38-1.84 8.6-5.05 11.59-.4.38-.48.9-.4 1.41-.02.02-.04.04-.06.07-.54.71-.39 1.73.32 2.27.7.52 1.76.36 2.27-.33 2.79-3.71 7.05-5.84 11.69-5.84 8.06 0 14.61 6.55 14.61 14.61 0 5.11-2.73 9.912-7.117 12.54-.38.22-.64.58-.74 1-.11.42-.04.852.18 1.22.29.49.82.79 1.39.79.29 0 .58-.08.83-.23 2.52-1.51 4.54-3.64 6.03-6.08h7.29c.89 0 1.62-.73 1.62-1.62 0-.893-.73-1.62-1.62-1.62h-5.81c.69-1.92 1.18-3.91 1.18-6 0-2.46-.5-4.8-1.41-6.934h.62c.894 0 1.62-.73 1.62-1.62 0-.89-.726-1.62-1.62-1.62h-2.44c-3.23-4.63-8.574-7.68-14.634-7.68-2.49 0-4.86.582-7.06 1.533.91-2.14 1.39-4.44 1.48-6.79h6.61c.89 0 1.62-.727 1.62-1.62 0-.89-.73-1.62-1.62-1.62h-6.79c-.37-2.66-1.24-5.17-2.61-7.38H467c.897 0 1.62-.73 1.62-1.63 0-.89-.723-1.62-1.62-1.62h-21.48c-2.705-2.81-6.27-4.74-10.265-5.48m128.1 105.94c-.01.432.16.842.46 1.15.306.313.72.49 1.158.49.42 0 .83-.167 1.13-.46 6.58-6.45 10.21-15.08 10.21-24.3 0-18.76-15.26-34.02-34.02-34.02-6.12 0-12 1.7-17.218 4.78-2.66-9.3-11.15-16.18-21.29-16.18-8.39 0-15.62 4.72-19.41 11.59-.3-.31-.7-.52-1.17-.52h-.89c-.9 0-1.62.73-1.62 1.62 0 .893.72 1.62 1.62 1.62h.74c-.95 2.473-1.53 5.13-1.53 7.933 0 1.79.21 3.58.64 5.31.21.86 1.092 1.43 1.96 1.19.86-.22 1.4-1.096 1.19-1.96-.36-1.48-.54-3.01-.54-4.54 0-10.48 8.52-19 19-19s19 8.52 19 19c0 3.39-.91 6.72-2.62 9.63-.458.77-.198 1.77.57 2.21.25.15.534.23.82.23.57 0 1.104-.306 1.396-.8 2.008-3.4 3.068-7.3 3.068-11.27 0-.93-.17-1.82-.28-2.72 4.945-3.16 10.63-4.88 16.544-4.88 16.97 0 30.77 13.81 30.77 30.78 0 8.34-3.28 16.15-9.234 21.99-.31.31-.49.71-.49 1.14m-453.73 154c-.897 0-1.62.73-1.62 1.62 0 .9.723 1.63 1.62 1.63h15.25c.892 0 1.62-.73 1.62-1.628 0-.89-.728-1.62-1.62-1.62H109.6m53.85 1.62c0-.89-.73-1.62-1.62-1.62H138.3c-.89 0-1.62.73-1.62 1.62 0 .895.73 1.625 1.62 1.625h23.573c.894 0 1.62-.73 1.62-1.63m29.343-1.62h-20.33c-.892 0-1.62.73-1.62 1.62 0 .9.728 1.63 1.62 1.63h20.336c.897 0 1.627-.73 1.627-1.624 0-.89-.73-1.62-1.62-1.62m114.61 0h-84.11c-.68 0-1.15.47-1.39 1.06-.24-.59-.71-1.06-1.38-1.06h-14.33c-.89 0-1.62.73-1.62 1.62 0 .896.73 1.626 1.62 1.626h14.33c.68 0 1.15-.47 1.39-1.06.25.59.72 1.06 1.39 1.06h84.11c.89 0 1.62-.73 1.62-1.62 0-.89-.73-1.62-1.62-1.62m37.66 1.62c0-.89-.72-1.62-1.62-1.62h-18.49c-.89 0-1.62.73-1.62 1.62 0 .9.73 1.63 1.62 1.63h18.49c.9 0 1.62-.73 1.62-1.62m33.97-1.62h-13.4c-.89 0-1.62.73-1.62 1.62 0 .9.73 1.63 1.62 1.63h13.4c.9 0 1.62-.73 1.62-1.62 0-.89-.72-1.62-1.62-1.62m47.14 0H411c-.895 0-1.622.73-1.622 1.62 0 .896.727 1.626 1.62 1.626h15.252c.894 0 1.62-.73 1.62-1.63s-.726-1.62-1.62-1.62m111.375 0H435.03c-.895 0-1.622.73-1.622 1.62 0 .9.727 1.63 1.62 1.63h102.597c.893 0 1.62-.73 1.62-1.624s-.727-1.62-1.62-1.62m33.97 1.62c0-.895-.726-1.62-1.62-1.62h-28.65c-.895 0-1.62.725-1.62 1.62 0 .89.725 1.62 1.62 1.62h28.65c.894 0 1.62-.73 1.62-1.625m25.882 0c0-.894-.727-1.62-1.62-1.62h-19.41c-.892 0-1.62.726-1.62 1.62 0 .89.728 1.62 1.62 1.62h19.41c.893 0 1.62-.73 1.62-1.62m10.86-1.62c-.893 0-1.62.726-1.62 1.62 0 .893.727 1.623 1.62 1.623h1.38c.895 0 1.625-.73 1.625-1.63 0-.89-.73-1.62-1.624-1.62h-1.38M399.482 404c.893 0 1.62-.73 1.62-1.627s-.727-1.62-1.62-1.62h-1.38c-.894 0-1.62.727-1.62 1.62 0 .89.726 1.62 1.62 1.62h1.38m-8.1 0c.894 0 1.62-.73 1.62-1.63 0-.89-.726-1.62-1.62-1.62h-1.38c-.894 0-1.62.73-1.62 1.62 0 .9.726 1.63 1.62 1.63h1.38m-224.168 0c.894 0 1.62-.73 1.62-1.624 0-.89-.726-1.62-1.62-1.62h-1.38c-.894 0-1.62.73-1.62 1.62 0 .89.726 1.62 1.62 1.62h1.38m-36.738 12.93c-.894 0-1.62.73-1.62 1.62 0 .89.726 1.62 1.62 1.62h15.715c.9 0 1.63-.73 1.63-1.62 0-.89-.72-1.62-1.62-1.62h-15.72m48.3 1.62c0-.89-.72-1.62-1.62-1.62H152.2c-.895 0-1.62.73-1.62 1.62 0 .89.725 1.62 1.62 1.62h24.954c.894 0 1.62-.73 1.62-1.62m1.842 0c0 .89.73 1.62 1.624 1.62h39.742c.895 0 1.62-.73 1.62-1.62 0-.89-.725-1.62-1.62-1.62h-39.74c-.894 0-1.624.73-1.624 1.62m45.524-1.62c-.893 0-1.62.73-1.62 1.62 0 .89.727 1.62 1.62 1.62h81.802c.893 0 1.62-.73 1.62-1.62 0-.89-.727-1.62-1.62-1.62h-81.8m140.728 1.62c0-.89-.732-1.62-1.625-1.62h-28.19c-.894 0-1.62.73-1.62 1.62 0 .89.726 1.62 1.62 1.62h28.19c.893 0 1.624-.73 1.624-1.62m3.69 0c0 .89.73 1.62 1.62 1.62H405c.895 0 1.62-.73 1.62-1.62 0-.89-.725-1.62-1.62-1.62h-32.81c-.894 0-1.62.73-1.62 1.62m48.522 0c0 .89.727 1.62 1.62 1.62h14.326c.89 0 1.62-.73 1.62-1.62 0-.89-.73-1.62-1.62-1.62H420.7c-.893 0-1.62.73-1.62 1.62m19.646-1.62c-.894 0-1.62.73-1.62 1.62 0 .89.726 1.62 1.62 1.62H454.9c.893 0 1.62-.73 1.62-1.62 0-.89-.727-1.62-1.62-1.62h-16.174m25.417 0c-.894 0-1.62.73-1.62 1.62 0 .89.726 1.62 1.62 1.62h75.328c.18 0 .3-.14.47-.19.16.06.28.2.46.2h3.7c.9 0 1.63-.73 1.63-1.62 0-.89-.73-1.62-1.62-1.62h-3.7c-.18 0-.3.14-.46.19-.16-.05-.28-.19-.46-.19h-75.33m131.31 3.24h3.7c.9 0 1.62-.73 1.62-1.62 0-.89-.72-1.62-1.62-1.62h-3.7c-.89 0-1.62.73-1.62 1.62 0 .89.73 1.62 1.62 1.62M411.68 417c-.892 0-1.62.73-1.62 1.62 0 .897.728 1.62 1.62 1.62h1.85c.89 0 1.62-.723 1.62-1.62 0-.89-.73-1.62-1.62-1.62h-1.85m-20.4 16.176c-.893 0-1.62.73-1.62 1.62 0 .896.727 1.62 1.62 1.62h1.85c.895 0 1.62-.724 1.62-1.62 0-.89-.73-1.62-1.62-1.62h-1.85m-55.07 3.24h1.85c.89 0 1.62-.724 1.62-1.62 0-.89-.73-1.62-1.62-1.62h-1.85c-.89 0-1.62.73-1.62 1.62 0 .896.73 1.62 1.62 1.62m-164.58 0h1.85c.89 0 1.62-.724 1.62-1.62 0-.89-.73-1.62-1.62-1.62h-1.85c-.9 0-1.62.73-1.62 1.62 0 .896.72 1.62 1.62 1.62m371.56-3.24c-.898 0-1.62.73-1.62 1.62 0 .896.722 1.62 1.62 1.62h1.85c.89 0 1.62-.724 1.62-1.62 0-.89-.73-1.62-1.62-1.62h-1.85m24.492 0c-.896 0-1.62.73-1.62 1.62 0 .896.724 1.62 1.62 1.62h1.845c.896 0 1.62-.724 1.62-1.62 0-.89-.724-1.62-1.62-1.62h-1.846m-241.7-12.93c.89 0 1.62-.727 1.62-1.62 0-.894-.73-1.62-1.62-1.62h-1.85c-.89 0-1.62.726-1.62 1.62 0 .893.73 1.62 1.62 1.62h1.85m264.58-1.62c0-.894-.73-1.62-1.62-1.62h-35.59c-.89 0-1.62.726-1.62 1.62 0 .893.73 1.62 1.62 1.62h35.59c.89 0 1.62-.727 1.62-1.62m-432.35 14.53c-.89 0-1.62.73-1.62 1.62 0 .897.73 1.62 1.62 1.62h9.71c.89 0 1.62-.723 1.62-1.62 0-.89-.73-1.62-1.63-1.62h-9.7m25.42 0c-.89 0-1.62.73-1.62 1.62 0 .897.73 1.62 1.62 1.62h17.57c.9 0 1.62-.723 1.62-1.62 0-.89-.72-1.62-1.62-1.62h-17.56m50.15 3.148c.09.02.14.1.23.1h63.78c.9 0 1.62-.72 1.62-1.62 0-.89-.72-1.62-1.62-1.62H234c-.09 0-.145.08-.23.1-.087-.01-.14-.093-.23-.093h-27.73c-.895 0-1.62.73-1.62 1.62 0 .9.725 1.62 1.62 1.62h27.73c.09 0 .143-.08.23-.09m95.664-1.52c0-.89-.72-1.62-1.62-1.62h-26.34c-.89 0-1.62.73-1.62 1.62 0 .9.73 1.62 1.62 1.62h26.35c.9 0 1.63-.72 1.63-1.62m18.25 1.62h32.35c.9 0 1.62-.72 1.62-1.62 0-.89-.72-1.62-1.62-1.62H347.7c-.893 0-1.62.73-1.62 1.62 0 .9.727 1.62 1.62 1.62m52.45-1.62c0 .9.73 1.62 1.62 1.62h48.526c.895 0 1.62-.72 1.62-1.62 0-.89-.725-1.62-1.62-1.62h-48.53c-.893 0-1.62.73-1.62 1.62m109.995.01c.01.89.73 1.62 1.62 1.62h27.73c.9 0 1.62-.72 1.62-1.62 0-.89-.72-1.62-1.62-1.62h-27.73c-.89 0-1.61.73-1.62 1.62-.01-.88-.73-1.61-1.62-1.61h-54.53c-.89 0-1.62.73-1.62 1.62 0 .9.73 1.62 1.62 1.62h54.53c.89 0 1.61-.72 1.62-1.61m51.06 1.61c.89 0 1.62-.72 1.62-1.62 0-.89-.73-1.62-1.62-1.62h-7.39c-.89 0-1.62.73-1.62 1.62 0 .9.73 1.63 1.62 1.63h7.39"/>
    <path d="M242.888 146.332c-.894 0-1.62.727-1.62 1.62 0 .895.726 1.625 1.62 1.625h21.154c.894 0 1.62-.73 1.62-1.624 0-.894-.726-1.62-1.62-1.62h-21.154m-21.81 44.6c0 .894.73 1.62 1.623 1.62h18.48c.9 0 1.62-.726 1.62-1.62 0-.893-.72-1.62-1.62-1.62H222.7c-.892 0-1.623.727-1.623 1.62m-16.683 0c0 .894.727 1.62 1.62 1.62h12.514c.894 0 1.62-.726 1.62-1.62 0-.893-.726-1.62-1.62-1.62h-12.513c-.894 0-1.62.727-1.62 1.62m-6.428 1.62c.893 0 1.62-.726 1.62-1.62 0-.893-.727-1.62-1.62-1.62h-.89c-.894 0-1.62.727-1.62 1.62 0 .894.726 1.62 1.62 1.62h.89M496.56 174.76c0 .893.73 1.62 1.623 1.62h10.13c.894 0 1.62-.727 1.62-1.62 0-.894-.726-1.62-1.62-1.62h-10.13c-.893 0-1.623.726-1.623 1.62m-18.342 1.62h16.09c.894 0 1.62-.727 1.62-1.62 0-.894-.726-1.62-1.62-1.62h-16.09c-.894 0-1.62.726-1.62 1.62 0 .893.726 1.62 1.62 1.62m-274.326 0h2.382c.894 0 1.62-.727 1.62-1.62 0-.894-.726-1.62-1.62-1.62h-2.382c-.894 0-1.62.726-1.62 1.62 0 .893.726 1.62 1.62 1.62m279.03-16.177c.894 0 1.62-.727 1.62-1.62 0-.894-.726-1.62-1.62-1.62h-1.19c-.895 0-1.622.726-1.622 1.62 0 .893.727 1.62 1.62 1.62h1.192m-248.01-1.62c0 .893.728 1.62 1.62 1.62h1.193c.894 0 1.62-.727 1.62-1.62 0-.894-.726-1.62-1.62-1.62h-1.19c-.895 0-1.622.726-1.622 1.62m-12.977 1.62c.893 0 1.62-.727 1.62-1.62 0-.894-.727-1.62-1.62-1.62h-1.195c-.89 0-1.62.726-1.62 1.62 0 .893.73 1.62 1.62 1.62h1.2m-13.07 14.557c0 .893.73 1.62 1.62 1.62h22.95c.89 0 1.63-.727 1.63-1.62 0-.894-.73-1.62-1.62-1.62H210.5c-.897 0-1.624.726-1.624 1.62m290.596-17.798h-6.26c-.895 0-1.62.727-1.62 1.62 0 .894.725 1.62 1.62 1.62h6.257c.89 0 1.62-.726 1.62-1.62 0-.893-.73-1.62-1.62-1.62m-24.29 0h-11.32c-.9 0-1.62.727-1.62 1.62 0 .894.72 1.62 1.62 1.62h11.32c.89 0 1.62-.726 1.62-1.62 0-.893-.73-1.62-1.62-1.62m-131.64 1.62c0 .894.72 1.62 1.62 1.62h20.85c.89 0 1.62-.726 1.62-1.62 0-.893-.73-1.62-1.62-1.62h-20.86c-.9 0-1.62.727-1.62 1.62m-112.67 1.62c.89 0 1.62-.726 1.62-1.62 0-.893-.73-1.62-1.62-1.62h-4.76c-.9 0-1.62.727-1.62 1.62 0 .894.72 1.62 1.62 1.62h4.76m132.83-12.25c0 .895.73 1.625 1.62 1.625h8.35c.89 0 1.62-.73 1.62-1.624 0-.894-.73-1.62-1.62-1.62h-8.35c-.89 0-1.62.726-1.62 1.62m-17.88 0c0 .894.73 1.624 1.62 1.624h13.41c.9 0 1.62-.73 1.62-1.624 0-.894-.72-1.62-1.62-1.62h-13.41c-.89 0-1.62.726-1.62 1.62m-9.34 0c0 .894.73 1.624 1.62 1.624h2.68c.89 0 1.62-.73 1.62-1.624 0-.894-.73-1.62-1.62-1.62h-2.69c-.9 0-1.62.726-1.62 1.62m117.75-16.173c0 .893.72 1.62 1.62 1.62h9.23c.89 0 1.62-.727 1.62-1.62 0-.894-.73-1.62-1.63-1.62h-9.24c-.9 0-1.62.726-1.62 1.62m-87.16 0c0 .893.73 1.62 1.62 1.62h11.92c.89 0 1.62-.727 1.62-1.62 0-.894-.73-1.62-1.62-1.62h-11.9c-.9 0-1.63.726-1.63 1.62m-12.68-1.62h-8.64c-.9 0-1.62.726-1.62 1.62 0 .893.72 1.62 1.62 1.62h8.64c.89 0 1.62-.727 1.62-1.62 0-.894-.73-1.62-1.62-1.62m-40.65 1.62c0 .893.73 1.62 1.62 1.62h9.83c.89 0 1.62-.727 1.62-1.62 0-.894-.73-1.62-1.62-1.62h-9.84c-.89 0-1.62.726-1.62 1.62m-43.86 0c0-.894-.73-1.62-1.63-1.62h-29.6c-.9 0-1.62.726-1.62 1.62 0 .893.72 1.62 1.62 1.62h29.6c.89 0 1.62-.727 1.62-1.62m63.62 1.62c.89 0 1.62-.727 1.62-1.62 0-.894-.73-1.62-1.62-1.62h-.89c-.9 0-1.62.726-1.62 1.62 0 .893.72 1.62 1.62 1.62h.89m5.22-3.24h-.89c-.89 0-1.62.726-1.62 1.62 0 .893.73 1.62 1.622 1.62h.89c.89 0 1.62-.727 1.62-1.62 0-.894-.73-1.62-1.62-1.62m41.805 16.172h-.89c-.894 0-1.62.727-1.62 1.62 0 .895.726 1.625 1.62 1.625h.89c.894 0 1.62-.73 1.62-1.624 0-.894-.726-1.62-1.62-1.62m-27.467-30.727c0 .893.73 1.62 1.62 1.62h18.175c.89 0 1.62-.727 1.62-1.62 0-.894-.73-1.62-1.62-1.62h-18.17c-.897 0-1.62.726-1.62 1.62m-24.008 1.62h21.16c.89 0 1.62-.727 1.62-1.62 0-.894-.73-1.62-1.62-1.62h-21.15c-.897 0-1.62.726-1.62 1.62 0 .893.723 1.62 1.62 1.62m-10.13-3.24h-9.24c-.89 0-1.62.726-1.62 1.62 0 .893.73 1.62 1.62 1.62h9.24c.89 0 1.62-.727 1.62-1.62 0-.894-.73-1.62-1.62-1.62m-64.306 3.24h2.4c.12 0 .19-.1.3-.124.11.024.18.124.29.124h33.31c.89 0 1.62-.727 1.62-1.62 0-.894-.73-1.62-1.62-1.62h-33.3c-.12 0-.19.1-.3.123-.11-.03-.18-.13-.3-.13h-2.39c-.9 0-1.62.72-1.62 1.62 0 .89.72 1.62 1.62 1.62m70.13 0c.89 0 1.62-.73 1.62-1.62 0-.9-.73-1.62-1.62-1.62h-1.19c-.9 0-1.62.72-1.62 1.62 0 .89.72 1.62 1.62 1.62h1.19m-25.25 0c.89 0 1.62-.73 1.62-1.62 0-.9-.73-1.62-1.62-1.62h-1.19c-.9 0-1.62.72-1.62 1.62 0 .89.72 1.62 1.62 1.62h1.19m68.15-16.18h1.19c.89 0 1.62-.73 1.62-1.62 0-.9-.73-1.63-1.62-1.63h-1.19c-.9 0-1.63.72-1.63 1.62 0 .89.72 1.62 1.62 1.62m36.7 0c.89 0 1.62-.73 1.62-1.62 0-.9-.73-1.63-1.62-1.63h-1.19c-.9 0-1.62.72-1.62 1.62 0 .89.72 1.62 1.62 1.62h1.19m-23.16 16.18c.89 0 1.62-.73 1.62-1.62 0-.9-.73-1.62-1.62-1.62H380c-.89 0-1.62.72-1.62 1.62 0 .89.73 1.62 1.62 1.62h1.194m-5.11-16.18h20.86c.897 0 1.62-.73 1.62-1.62 0-.9-.723-1.63-1.62-1.63H376.1c-.89 0-1.62.73-1.62 1.62 0 .89.73 1.62 1.62 1.62m-45.29 0h31.29c.893 0 1.62-.73 1.62-1.62 0-.9-.727-1.62-1.62-1.62h-31.29c-.89 0-1.62.73-1.62 1.62 0 .89.73 1.62 1.62 1.62m-39.795 0h35.16c.894 0 1.62-.73 1.62-1.62 0-.9-.726-1.63-1.62-1.63h-35.16c-.893 0-1.62.73-1.62 1.62 0 .89.727 1.62 1.62 1.62m73.043 149.72l23.79 19.42h-47.583l23.793-19.42zM337.34 288.7h53.43v-15.3h-53.43v15.3zm44.85-27.44l-17.14-14.21c-.29-.24-.654-.376-1.03-.376s-.742.13-1.04.375l-17.05 14.2v-7.58c0-9.96 8.095-18.05 18.045-18.05s18.05 8.09 18.05 18.05c0 .25.057.49.166.71v6.87zm153.7 62.946l9.44-10.46 10.5 10.51v7.363h-19.94v-7.41zm10.52-13.95c-.3-.3-.69-.478-1.17-.478h-.01c-.44.01-.87.21-1.162.54l-6.11 6.77 7.39-23.94 8.346 24.39-7.277-7.277zm28.16 24.603l12.876 12.87h-45.99l-12.88-12.88h45.995zm-238.842-42.92h86.715v9.59H306.81v-9.6h28.914zm84.2 51.95l-.55-.21-10.38-10.39h37.43l10.595 10.6h-37.1zm-96.606-7.84l-13.35-13.34h72.065l13.37 13.37h-71.76c-.104 0-.17.09-.27.11-.03-.04-.02-.1-.055-.14zm132.98-21.47c-.13.08-.29.09-.395.2-.01.01-.03.01-.038.02l-13.53 14.99c-.07.07-.05.18-.1.27h-37.17l-.01-.01h-.01c-.14 0-.23.12-.36.16-.28.08-.57.14-.77.35-.01.01-.03.01-.04.02l-4.45 4.92-15.58-15.58c-.31-.3-.72-.48-1.15-.48h-76.65c-.01 0-.02.01-.02.01s-.01-.01-.02-.01H306c-.11 0-.18.1-.28.13-.317.07-.627.15-.84.38-.01.01-.03.01-.04.02l-13.323 14.76-11.106-11.11c-.3-.31-.71-.48-1.14-.48h-7.46v-18.4H456.3v9.8zm-186.5 11.85c.143.04.24.16.395.16.154 0 .253-.13.394-.17h8.02l11.68 11.67c.07.09.06.22.15.3.07.06.17.03.24.08l.82.81h-46l-12.88-12.87h37.19zm204.053 3.94L460.98 317.5h45.995l12.87 12.87h-45.993zM365.893 219.53h20.237v-10.972h-20.238v10.972zm-224.27 142.11l-12.873-12.873h32.645v12.872h-19.77zm37.086-32.996c-.31-.298-.7-.474-1.17-.474h-.02c-.45.01-.87.205-1.16.535l-9.67 10.715 10.95-35.47 12.28 35.914-11.22-11.22zm37.15 20.123l13.04 12.873h-33.61v-12.88h20.56zm-92.23-2.706l-14.55 16.12c-.27.3-.42.68-.42 1.08v18.6c0 .9.72 1.62 1.62 1.62.89 0 1.62-.72 1.62-1.62v-17.97l12.98-14.39 14.43 14.44v17.92c0 .9.72 1.62 1.62 1.62.89 0 1.62-.72 1.62-1.62v-16.97h18.82v16.97c0 .9.72 1.62 1.62 1.62.89 0 1.62-.72 1.62-1.62v-35.33l12.99-14.39 14.43 14.44v35.28c0 .9.72 1.62 1.62 1.62.89 0 1.62-.72 1.62-1.62v-16.97h34.05v11.19c0 .9.72 1.62 1.62 1.62.89 0 1.62-.72 1.62-1.62V361.4c0-.433-.18-.856-.48-1.153l-14.44-14.257c-.31-.3-.71-.467-1.14-.467h-.75v-3.957l12.98-14.383 14.43 14.434v8.997c0 .893.72 1.624 1.62 1.624.89 0 1.62-.73 1.62-1.624v-8.05h47.34v16.976c0 .897.72 1.62 1.62 1.62.89 0 1.62-.723 1.62-1.62v-18.59c0-.426-.18-.846-.48-1.147l-2.72-2.716 12.29-13.62 14.43 14.436v37.084c0 .894.73 1.62 1.62 1.62.9 0 1.62-.726 1.62-1.62v-35.64h73.41v28.312c0 .89.73 1.62 1.62 1.62.9 0 1.62-.73 1.62-1.62v-28.4l4.7-5.21 12.18 12.18c.16.15.35.28.56.36l.12.04v39.43c0 .89.73 1.62 1.62 1.62.9 0 1.62-.73 1.62-1.62v-38.92h37.63V365c0 .893.72 1.62 1.62 1.62.89 0 1.62-.727 1.62-1.62v-19.48c0-.088-.08-.14-.1-.227.01-.08.09-.13.09-.22 0-.43-.17-.84-.48-1.14l-13.39-13.39c-.3-.3-.72-.473-1.15-.473h-.64l10.67-11.82 14.43 14.438v42.293c0 .9.73 1.62 1.62 1.62.89 0 1.62-.72 1.62-1.62v-41.34h47.33l-13.22 14.65c-.27.3-.42.68-.42 1.08v8.06c0 .89.73 1.62 1.62 1.62.89 0 1.62-.73 1.62-1.62V350l12.98-14.387 14.44 14.435v27.716c0 .894.73 1.62 1.62 1.62s1.62-.726 1.62-1.62V351h47.34v20.03c0 .892.73 1.62 1.62 1.62.89 0 1.62-.728 1.62-1.62v-21.655c0-.426-.17-.845-.47-1.146l-16.12-16.12c-.31-.3-.72-.48-1.15-.48H559v-8.03c0-.1-.09-.17-.11-.27-.01-.11.06-.22.02-.33l-12.17-35.6c-.22-.64-.827-1.07-1.56-1.1-.7.01-1.31.47-1.52 1.14l-10.99 35.61c-.027.09.04.18.03.28-.016.09-.1.16-.1.25v8.04h-7.42c-.07-.27-.11-.56-.314-.76l-16.12-16.12c-.31-.31-.71-.48-1.15-.48h-48.1v-11.11c0-.9-.73-1.62-1.62-1.62h-32.24v-11.21c0-.9-.73-1.62-1.62-1.62H394v-16.9c0-.07-.06-.11-.07-.17-.03-.29-.14-.53-.314-.77-.062-.08-.082-.18-.158-.24-.025-.02-.027-.06-.05-.08l-7.99-6.52v-10.33c0-.26-.064-.52-.18-.74-.368-10.71-8.893-19.41-19.407-20.36v-9.83h21.91c.9 0 1.62-.73 1.62-1.62v-14.21c0-.9-.72-1.63-1.62-1.63h-21.9v-.36c0-.9-.72-1.62-1.62-1.62-.89 0-1.62.72-1.62 1.62v27.59c-11.09.73-19.92 9.89-19.92 21.15v10.34l-7.98 6.52c-.02.02-.02.06-.05.08-.07.07-.09.16-.15.24-.18.24-.29.48-.32.77-.01.07-.07.11-.07.17v16.92h-28.92c-.89 0-1.62.73-1.62 1.62v11.22H270.2c-.894 0-1.62.73-1.62 1.62v20.04H228.7c-.006 0-.01.01-.016.01h-.023c-.13 0-.22.13-.35.16-.28.08-.57.15-.77.36-.01.01-.03.01-.04.02l-14.55 16.12c-.26.3-.41.68-.41 1.08v4.58H195.2c-.01-.08.04-.15.02-.22l-16.11-47.11c-.22-.65-.86-1.1-1.56-1.1-.7.02-1.31.48-1.52 1.15l-14.55 47.11c-.01.06.03.12.02.18h-36.66l-.01-.01c-.13 0-.22.12-.35.16-.283.08-.57.14-.77.35-.01.01-.03.01-.04.02zm357.07 281.1l8.74 23.11-24.89-16.36-.63-.4-3.23 1.23 10.99 29.05.17.46 3.52-1.34-8.74-23.11 24.89 16.37.63.41 3.22-1.22-11.17-29.51-3.52 1.35"/>
  </g>
</svg>
